HIERARCHY
ROOT Root
{
	OFFSET 0.00000 0.00000 0.00000
	CHANNELS 6 Xposition Yposition Zposition Zrotation Xrotation Yrotation
	JOINT Hips
	{
		OFFSET 0 0 0	
		CHANNELS 3 Zrotation Xrotation Yrotation
		JOINT Spine
		{
			OFFSET 0 4 0	
			CHANNELS 3 Zrotation Xrotation Yrotation
			JOINT Spine1
			{
				OFFSET 0 19.4 0	
				CHANNELS 3 Zrotation Xrotation Yrotation
				JOINT Spine2
				{
					OFFSET 0 16.6 0	
					CHANNELS 3 Zrotation Xrotation Yrotation
					JOINT LeftCollar
					{
						OFFSET 0 10 0	
						CHANNELS 3 Zrotation Xrotation Yrotation
						JOINT LeftArm
						{
							OFFSET 15.6 -2 3	
							CHANNELS 3 Zrotation Xrotation Yrotation
							JOINT LeftForeArm
							{
								OFFSET 3.5 -27 -1	
								CHANNELS 3 Zrotation Xrotation Yrotation
								JOINT LeftHand
								{
									OFFSET 1 -27 1	
									CHANNELS 3 Zrotation Xrotation Yrotation
									End Site
									{
										OFFSET 0 -15 0
									}
								}
							}
						}
					}
					JOINT RightCollar
					{
						OFFSET 0 10 0	
						CHANNELS 3 Zrotation Xrotation Yrotation
						JOINT RightArm
						{
							OFFSET -15.6 -2 3	
							CHANNELS 3 Zrotation Xrotation Yrotation
							JOINT RightForeArm
							{
								OFFSET -3.5 -27 -1	
								CHANNELS 3 Zrotation Xrotation Yrotation
								JOINT RightHand
								{
									OFFSET -1 -27 1	
									CHANNELS 3 Zrotation Xrotation Yrotation
									End Site
									{
										OFFSET 0 -15 0
									}
								}
							}
						}
					}
					JOINT Neck
					{
						OFFSET 0 10 0	
						CHANNELS 3 Zrotation Xrotation Yrotation
						JOINT Head
						{
							OFFSET 0 12.7 3	
							CHANNELS 3 Zrotation Xrotation Yrotation
							End Site
							{
								OFFSET 0 12.7 3
							}
						}
					}
				}
			}
		}
	}
	JOINT LeftHip
	{
		OFFSET 0 0 0	
		CHANNELS 3 Zrotation Xrotation Yrotation
		JOINT LeftUpLeg
		{
			OFFSET 8.8 -6 0	
			CHANNELS 3 Zrotation Xrotation Yrotation
			JOINT LeftLeg
			{
				OFFSET 0 -39 2	
				CHANNELS 3 Zrotation Xrotation Yrotation
				JOINT LeftFoot
				{
					OFFSET 0 -43 -2	
					CHANNELS 3 Zrotation Xrotation Yrotation
					JOINT LeftFootFront
					{
						OFFSET 0 -7 8.5	
						CHANNELS 3 Zrotation Xrotation Yrotation
						End Site
						{
							OFFSET 0 -0.5 9
						}
					}
				}
				JOINT LeftHeel
				{
					OFFSET 0 -43 -2	
					CHANNELS 3 Zrotation Xrotation Yrotation
					End Site
					{
						OFFSET 0 -7.5 -5
					}
				}
			}
		}
	}
	JOINT RightHip
	{
		OFFSET 0 0 0	
		CHANNELS 3 Zrotation Xrotation Yrotation
		JOINT RightUpLeg
		{
			OFFSET -8.8 -6 0	
			CHANNELS 3 Zrotation Xrotation Yrotation
			JOINT RightLeg
			{
				OFFSET 0 -39 2	
				CHANNELS 3 Zrotation Xrotation Yrotation
				JOINT RightFoot
				{
					OFFSET 0 -43 -2	
					CHANNELS 3 Zrotation Xrotation Yrotation
					JOINT RightFootFront
					{
						OFFSET 0 -7 8.5	
						CHANNELS 3 Zrotation Xrotation Yrotation
						End Site
						{
							OFFSET 0 -0.5 9
						}
					}
				}
				JOINT RightHeel
				{
					OFFSET 0 -43 -2	
					CHANNELS 3 Zrotation Xrotation Yrotation
					End Site
					{
						OFFSET 0 -7.5 -5
					}
				}
			}
		}
	}
}
MOTION
Frames: 21
Frame Time: 0.05
0 95.5 0 -0 0 -0 0.43197 0.41386 1.7297 -0.48213 0.37756 0.24602 -0.48213 0.37756 0.24602 -0.40488 0.31729 0.20644 -0 0 -0 0.45403 -0.006601 0.43844 0.34396 -0.054054 1.4164 1.1118 -2.23 0.83689 -0 0 -0 0.54041 -0.15948 0.75526 0.12756 -0.1765 0.31906 0.69547 -0.10768 0.27111 -2.956 -0.77 -0.73557 -2.956 -0.77 -0.73557 -0 0 -0 -0 0 -0 -0 0 -0 -0 0 -0 -0 0 -0 -0 0 -0 -0 0 -0 -0 0 -0 -0 0 -0 -0 0 -0 -0 0 -0 -0 0 -0 
0 95.5 0 -0 0 -0 0.40951 0.38844 1.7179 -0.47667 0.37573 0.23153 -0.47667 0.37573 0.23153 -0.4003 0.31574 0.19428 -0 0 -0 0.41758 0.011326 0.46167 0.38228 -0.068377 1.4543 1.0849 -2.2076 0.80813 -0 0 -0 0.51935 -0.13231 0.73657 0.13924 -0.14981 0.34404 0.68987 -0.11579 0.25755 -2.9592 -0.73253 -0.72286 -2.9592 -0.73253 -0.72286 -0 0 -0 -0 0 -0 -0 0 -0 -0 0 -0 -0 0 -0 -0 0 -0 -0 0 -0 -0 0 -0 -0 0 -0 -0 0 -0 -0 0 -0 -0 0 -0 
0 95.5 0 -0 0 -0 0.38385 0.3607 1.705 -0.47194 0.38427 0.23059 -0.47194 0.38427 0.23059 -0.39632 0.32291 0.19348 -0 0 -0 0.38306 0.00059875 0.44669 0.42282 -0.085218 1.4921 1.0625 -2.2103 0.79506 -0 0 -0 0.51527 -0.12935 0.70049 0.13789 -0.132 0.35621 0.69169 -0.11739 0.24318 -2.9772 -0.70897 -0.72429 -2.9772 -0.70897 -0.72429 -0 0 -0 -0 0 -0 -0 0 -0 -0 0 -0 -0 0 -0 -0 0 -0 -0 0 -0 -0 0 -0 -0 0 -0 -0 0 -0 -0 0 -0 -0 0 -0 
0 95.5 0 -0 0 -0 0.36176 0.34492 1.6916 -0.46696 0.37744 0.21779 -0.46696 0.37744 0.21779 -0.39215 0.31717 0.18273 -0 0 -0 0.36015 0.017076 0.48732 0.44308 -0.10698 1.4814 1.0794 -2.1795 0.79412 -0 0 -0 0.48467 -0.087539 0.7223 0.15409 -0.14378 0.37136 0.70504 -0.10715 0.22885 -3.0038 -0.69985 -0.70867 -3.0038 -0.69985 -0.70867 -0 0 -0 -0 0 -0 -0 0 -0 -0 0 -0 -0 0 -0 -0 0 -0 -0 0 -0 -0 0 -0 -0 0 -0 -0 0 -0 -0 0 -0 -0 0 -0 
0 95.5 0 -0 0 -0 0.35277 0.35527 1.6778 -0.46352 0.30323 0.19869 -0.46352 0.30323 0.19869 -0.38928 0.25482 0.16674 -0 0 -0 0.33997 0.18993 0.54189 0.45773 -0.094573 1.4933 1.0624 -2.1773 0.79287 -0 0 -0 0.46974 0.1007 0.78107 0.1451 -0.16156 0.37284 0.6872 -0.11676 0.2173 -3.0078 -0.61224 -0.68055 -3.0078 -0.61224 -0.68055 -0 0 -0 -0 0 -0 -0 0 -0 -0 0 -0 -0 0 -0 -0 0 -0 -0 0 -0 -0 0 -0 -0 0 -0 -0 0 -0 -0 0 -0 -0 0 -0 
0 95.5 0 -0 0 -0 0.34121 0.35674 1.6654 -0.46459 0.29912 0.17544 -0.46459 0.29912 0.17544 -0.39019 0.25136 0.1472 -0 0 -0 0.31886 0.17729 0.62578 0.48782 -0.094078 1.4739 1.0489 -2.1515 0.76968 -0 0 -0 0.45983 0.077703 0.85708 0.15448 -0.17973 0.35522 0.6559 -0.13763 0.20228 -3.0257 -0.66441 -0.66669 -3.0257 -0.66441 -0.66669 -0 0 -0 -0 0 -0 -0 0 -0 -0 0 -0 -0 0 -0 -0 0 -0 -0 0 -0 -0 0 -0 -0 0 -0 -0 0 -0 -0 0 -0 -0 0 -0 
0 95.5 0 -0 0 -0 0.31074 0.37209 1.6574 -0.45848 0.29435 0.1805 -0.45848 0.29435 0.1805 -0.38506 0.24735 0.15146 -0 0 -0 0.28962 0.14809 0.61928 0.53283 -0.098592 1.4523 1.0125 -2.1635 0.77545 -0 0 -0 0.45152 0.062446 0.86558 0.17322 -0.19716 0.34165 0.62019 -0.16314 0.18053 -3.0221 -0.69695 -0.6678 -3.0221 -0.69695 -0.6678 -0 0 -0 -0 0 -0 -0 0 -0 -0 0 -0 -0 0 -0 -0 0 -0 -0 0 -0 -0 0 -0 -0 0 -0 -0 0 -0 -0 0 -0 -0 0 -0 
0 95.5 0 -0 0 -0 0.26925 0.38191 1.6536 -0.43956 0.27618 0.17972 -0.43956 0.27618 0.17972 -0.36917 0.23209 0.15082 -0 0 -0 0.23102 0.16603 0.61547 0.57613 -0.10868 1.4447 1.0087 -2.1751 0.77557 -0 0 -0 0.40521 0.066292 0.92188 0.19521 -0.14721 0.30618 0.59887 -0.18904 0.16193 -3.0127 -0.69589 -0.65983 -3.0127 -0.69589 -0.65983 -0 0 -0 -0 0 -0 -0 0 -0 -0 0 -0 -0 0 -0 -0 0 -0 -0 0 -0 -0 0 -0 -0 0 -0 -0 0 -0 -0 0 -0 -0 0 -0 
0 95.5 0 -0 0 -0 0.23745 0.39501 1.6688 -0.43351 0.24994 0.17428 -0.43351 0.24994 0.17428 -0.36409 0.21004 0.14627 -0 0 -0 0.20948 0.20116 0.5803 0.59633 -0.10068 1.4896 1.0112 -2.2045 0.78739 -0 0 -0 0.43202 0.10111 0.92335 0.18752 -0.13388 0.2978 0.57221 -0.17784 0.17164 -2.9724 -0.71403 -0.66387 -2.9724 -0.71403 -0.66387 -0 0 -0 -0 0 -0 -0 0 -0 -0 0 -0 -0 0 -0 -0 0 -0 -0 0 -0 -0 0 -0 -0 0 -0 -0 0 -0 -0 0 -0 -0 0 -0 
0 95.5 0 -0 0 -0 0.21724 0.41457 1.6911 -0.4305 0.21943 0.16449 -0.4305 0.21943 0.16449 -0.36158 0.18441 0.13806 -0 0 -0 0.18803 0.21671 0.58297 0.61053 -0.065933 1.5236 1.0269 -2.2191 0.78534 -0 0 -0 0.43403 0.1526 0.9309 0.19362 -0.12145 0.29221 0.57406 -0.18134 0.18513 -2.9521 -0.70456 -0.64792 -2.9521 -0.70456 -0.64792 -0 0 -0 -0 0 -0 -0 0 -0 -0 0 -0 -0 0 -0 -0 0 -0 -0 0 -0 -0 0 -0 -0 0 -0 -0 0 -0 -0 0 -0 -0 0 -0 
0 95.5 0 -0 0 -0 0.19664 0.4108 1.7039 -0.43899 0.21539 0.16734 -0.43899 0.21539 0.16734 -0.36871 0.18101 0.14045 -0 0 -0 0.21225 0.195 0.59465 0.63614 -0.013683 1.478 1.0402 -2.2229 0.79099 -0 0 -0 0.46543 0.15153 0.90609 0.19682 -0.10711 0.28549 0.54634 -0.18197 0.18845 -2.9318 -0.70859 -0.62392 -2.9318 -0.70859 -0.62392 -0 0 -0 -0 0 -0 -0 0 -0 -0 0 -0 -0 0 -0 -0 0 -0 -0 0 -0 -0 0 -0 -0 0 -0 -0 0 -0 -0 0 -0 -0 0 -0 
0 95.5 0 -0 0 -0 0.18025 0.41669 1.7353 -0.44134 0.2056 0.16667 -0.44134 0.2056 0.16667 -0.37069 0.17279 0.13989 -0 0 -0 0.21648 0.198 0.56741 0.61643 0.02439 1.4896 1.083 -2.24 0.78817 -0 0 -0 0.44845 0.15258 0.89201 0.22386 -0.079089 0.27458 0.51145 -0.19345 0.18116 -2.9514 -0.71033 -0.6287 -2.9514 -0.71033 -0.6287 -0 0 -0 -0 0 -0 -0 0 -0 -0 0 -0 -0 0 -0 -0 0 -0 -0 0 -0 -0 0 -0 -0 0 -0 -0 0 -0 -0 0 -0 -0 0 -0 
0 95.5 0 -0 0 -0 0.1588 0.4328 1.7707 -0.44697 0.1758 0.15573 -0.44697 0.1758 0.15573 -0.37543 0.14776 0.13072 -0 0 -0 0.17803 0.25766 0.64298 0.62207 0.032266 1.4434 1.1098 -2.2527 0.80175 -0 0 -0 0.44723 0.20175 0.90882 0.23801 -0.060471 0.26374 0.48197 -0.20909 0.17766 -2.9092 -0.69661 -0.62446 -2.9092 -0.69661 -0.62446 -0 0 -0 -0 0 -0 -0 0 -0 -0 0 -0 -0 0 -0 -0 0 -0 -0 0 -0 -0 0 -0 -0 0 -0 -0 0 -0 -0 0 -0 -0 0 -0 
0 95.5 0 -0 0 -0 0.12442 0.45422 1.7989 -0.46039 0.1471 0.14279 -0.46039 0.1471 0.14279 -0.3867 0.12364 0.11986 -0 0 -0 0.18968 0.31717 0.70806 0.64511 0.02619 1.3738 1.1462 -2.2551 0.83953 -0 0 -0 0.45553 0.20724 0.92543 0.26874 -0.027389 0.26065 0.46517 -0.20539 0.18206 -2.8577 -0.64064 -0.61506 -2.8577 -0.64064 -0.61506 -0 0 -0 -0 0 -0 -0 0 -0 -0 0 -0 -0 0 -0 -0 0 -0 -0 0 -0 -0 0 -0 -0 0 -0 -0 0 -0 -0 0 -0 -0 0 -0 
0 95.5 0 -0 0 -0 0.08725 0.47965 1.8175 -0.47525 0.14939 0.14232 -0.47525 0.14939 0.14232 -0.39918 0.12557 0.11947 -0 0 -0 0.19196 0.27916 0.71878 0.71712 0.013239 1.305 1.2576 -2.3367 0.944 -0 0 -0 0.47115 0.11013 0.93702 0.281 0.0050328 0.26276 0.4586 -0.22323 0.16467 -2.8662 -0.62074 -0.6386 -2.8662 -0.62074 -0.6386 -0 0 -0 -0 0 -0 -0 0 -0 -0 0 -0 -0 0 -0 -0 0 -0 -0 0 -0 -0 0 -0 -0 0 -0 -0 0 -0 -0 0 -0 -0 0 -0 
0 95.5 0 -0 0 -0 0.057679 0.49146 1.8413 -0.48997 0.15771 0.11196 -0.48997 0.15771 0.11196 -0.41156 0.13254 0.093954 -0 0 -0 0.18937 0.21297 0.7932 0.81183 -0.013655 1.223 1.4432 -2.5297 1.1097 -0 0 -0 0.45094 0.034006 1.1046 0.30324 0.0081693 0.22338 0.45487 -0.22827 0.16125 -2.8643 -0.64934 -0.60998 -2.8643 -0.64934 -0.60998 -0 0 -0 -0 0 -0 -0 0 -0 -0 0 -0 -0 0 -0 -0 0 -0 -0 0 -0 -0 0 -0 -0 0 -0 -0 0 -0 -0 0 -0 -0 0 -0 
0 95.5 0 -0 0 -0 0.01505 0.47228 1.8584 -0.49469 0.17104 0.073365 -0.49469 0.17104 0.073365 -0.41552 0.14371 0.061527 -0 0 -0 0.17102 0.15685 0.86786 0.89168 -0.024964 1.1388 1.7884 -2.8947 1.2453 -0 0 -0 0.35748 -0.046827 1.3226 0.35776 0.028375 0.2488 0.47411 -0.23374 0.12274 -2.9108 -0.71962 -0.57088 -2.9108 -0.71962 -0.57088 -0 0 -0 -0 0 -0 -0 0 -0 -0 0 -0 -0 0 -0 -0 0 -0 -0 0 -0 -0 0 -0 -0 0 -0 -0 0 -0 -0 0 -0 -0 0 -0 
0 95.5 0 -0 0 -0 -0.02359 0.45328 1.8487 -0.52887 0.18938 0.057119 -0.52887 0.18938 0.057119 -0.44424 0.15911 0.047863 -0 0 -0 0.23665 0.094849 0.87283 0.97318 -0.0039622 1.0598 2.3308 -3.4321 1.3368 -0 0 -0 0.23297 -0.28267 1.4405 0.51218 0.15987 0.42376 0.48084 -0.25142 0.078294 -2.8667 -0.94706 -0.53489 -2.8667 -0.94706 -0.53489 -0 0 -0 -0 0 -0 -0 0 -0 -0 0 -0 -0 0 -0 -0 0 -0 -0 0 -0 -0 0 -0 -0 0 -0 -0 0 -0 -0 0 -0 -0 0 -0 
0 95.5 0 -0 0 -0 -0.071222 0.40813 1.8072 -0.59994 0.29031 0.069069 -0.59994 0.29031 0.069069 -0.50393 0.24391 0.057814 -0 0 -0 0.40544 -0.16308 0.80078 0.99541 0.02781 1.0359 2.7478 -3.8794 1.4676 -0 0 -0 0.14369 -0.9689 1.4819 0.76926 0.4543 0.66439 0.47709 -0.28978 0.024979 -2.7818 -1.4398 -0.51762 -2.7818 -1.4398 -0.51762 -0 0 -0 -0 0 -0 -0 0 -0 -0 0 -0 -0 0 -0 -0 0 -0 -0 0 -0 -0 0 -0 -0 0 -0 -0 0 -0 -0 0 -0 -0 0 -0 
0 95.5 0 -0 0 -0 -0.14092 0.3766 1.7457 -0.70593 0.32209 0.12673 -0.70593 0.32209 0.12673 -0.59293 0.27066 0.10619 -0 0 -0 0.64827 -0.21238 0.55564 0.95681 0.041442 1.0655 2.9457 -4.0257 1.5995 -0 0 -0 0.13492 -1.5665 1.6391 1.1015 0.76857 0.7462 0.46643 -0.33045 -0.042816 -2.651 -1.8739 -0.64092 -2.651 -1.8739 -0.64092 -0 0 -0 -0 0 -0 -0 0 -0 -0 0 -0 -0 0 -0 -0 0 -0 -0 0 -0 -0 0 -0 -0 0 -0 -0 0 -0 -0 0 -0 -0 0 -0 
0 95.5 0 -0 0 -0 -0.25304 0.42647 1.7284 -0.79002 0.092445 0.12975 -0.79002 0.092445 0.12975 -0.66361 0.077774 0.10891 -0 0 -0 0.76849 0.41132 0.2373 1.0563 -0.029131 1.1573 3.3713 -4.4927 1.9166 -0 0 -0 0.18203 -1.6876 1.7952 1.2861 1.2326 0.9206 0.52287 -0.33985 -0.024175 -2.1905 -1.0598 -1.0692 -2.1905 -1.0598 -1.0692 -0 0 -0 -0 0 -0 -0 0 -0 -0 0 -0 -0 0 -0 -0 0 -0 -0 0 -0 -0 0 -0 -0 0 -0 -0 0 -0 -0 0 -0 -0 0 -0 
